# xmcd
#
# Track frame offsets: 
#        150
#        23158
#        40072
#        53339
#        76460
#        91086
#        114317
#        129513
#        147979
#
# Disc length: 2166 seconds
#
# Revision: 0
# Processed by: cddbd v1.5.2PL0 Copyright (c) Steve Scherf et al.
# Submitted via: ExactAudioCopyFreeDBPlugin 1.0
#
DISCID=65087409
DTITLE=Little Jane and the Pistol Whips - Each Little Note
DYEAR=2013
DGENRE=Americana
TTITLE0=Small Town Girl
TTITLE1=Simone
TTITLE2=Hey, Hey, Hey
TTITLE3=So Slowly
TTITLE4=Hey Mr. Right
TTITLE5=In My Mind
TTITLE6=Alan's Song
TTITLE7=Out There Somewhere
TTITLE8=You and I Fit
EXTD=
EXTT0=
EXTT1=
EXTT2=
EXTT3=
EXTT4=
EXTT5=
EXTT6=
EXTT7=
EXTT8=
PLAYORDER=
